<svg xmlns="http://www.w3.org/2000/svg" width="20" height="538" viewBox="0 0 20 538">
  <g id="schedule_obj" transform="translate(-949 -1991)">
    <g id="Ellipse_1" data-name="Ellipse 1" transform="translate(949 1991)" fill="none" stroke="#785ffa" stroke-width="6">
      <circle cx="10" cy="10" r="10" stroke="none"/>
      <circle cx="10" cy="10" r="7" fill="none"/>
    </g>
    <g id="Ellipse_1_copy" data-name="Ellipse 1 copy" transform="translate(949 2065)" fill="none" stroke="#785ffa" stroke-width="6">
      <circle cx="10" cy="10" r="10" stroke="none"/>
      <circle cx="10" cy="10" r="7" fill="none"/>
    </g>
    <g id="Ellipse_1_copy-2" data-name="Ellipse 1 copy" transform="translate(949 2139)" fill="none" stroke="#785ffa" stroke-width="6">
      <circle cx="10" cy="10" r="10" stroke="none"/>
      <circle cx="10" cy="10" r="7" fill="none"/>
    </g>
    <g id="Ellipse_1_copy-3" data-name="Ellipse 1 copy" transform="translate(949 2361)" fill="none" stroke="#785ffa" stroke-width="6">
      <circle cx="10" cy="10" r="10" stroke="none"/>
      <circle cx="10" cy="10" r="7" fill="none"/>
    </g>
    <g id="Ellipse_1_copy-4" data-name="Ellipse 1 copy" transform="translate(949 2213)" fill="none" stroke="#785ffa" stroke-width="6">
      <circle cx="10" cy="10" r="10" stroke="none"/>
      <circle cx="10" cy="10" r="7" fill="none"/>
    </g>
    <g id="Ellipse_1_copy-5" data-name="Ellipse 1 copy" transform="translate(949 2435)" fill="none" stroke="#785ffa" stroke-width="6">
      <circle cx="10" cy="10" r="10" stroke="none"/>
      <circle cx="10" cy="10" r="7" fill="none"/>
    </g>
    <g id="Ellipse_1_copy-6" data-name="Ellipse 1 copy" transform="translate(949 2287)" fill="none" stroke="#785ffa" stroke-width="6">
      <circle cx="10" cy="10" r="10" stroke="none"/>
      <circle cx="10" cy="10" r="7" fill="none"/>
    </g>
    <g id="Ellipse_1_copy-7" data-name="Ellipse 1 copy" transform="translate(949 2509)" fill="none" stroke="#785ffa" stroke-width="6">
      <circle cx="10" cy="10" r="10" stroke="none"/>
      <circle cx="10" cy="10" r="7" fill="none"/>
    </g>
    <line id="Shape_1" data-name="Shape 1" y2="52" transform="translate(959 2012)" fill="none" stroke="#785ffa" stroke-width="1" stroke-dasharray="2 3"/>
    <line id="Shape_1-2" data-name="Shape 1" y2="52" transform="translate(959 2086)" fill="none" stroke="#785ffa" stroke-width="1" stroke-dasharray="2 3"/>
    <line id="Shape_1-3" data-name="Shape 1" y2="52" transform="translate(959 2160)" fill="none" stroke="#785ffa" stroke-width="1" stroke-dasharray="2 3"/>
    <line id="Shape_1-4" data-name="Shape 1" y2="52" transform="translate(959 2382)" fill="none" stroke="#785ffa" stroke-width="1" stroke-dasharray="2 3"/>
    <line id="Shape_1-5" data-name="Shape 1" y2="52" transform="translate(959 2234)" fill="none" stroke="#785ffa" stroke-width="1" stroke-dasharray="2 3"/>
    <line id="Shape_1-6" data-name="Shape 1" y2="52" transform="translate(959 2456)" fill="none" stroke="#785ffa" stroke-width="1" stroke-dasharray="2 3"/>
    <line id="Shape_1-7" data-name="Shape 1" y2="52" transform="translate(959 2308)" fill="none" stroke="#785ffa" stroke-width="1" stroke-dasharray="2 3"/>
  </g>
</svg>
