<svg xmlns="http://www.w3.org/2000/svg" width="152" height="30" viewBox="0 0 152 30">
  <g id="WEMUZ_LOGO_white" data-name="WEMUZ LOGO_white" transform="translate(0 -0.198)">
    <rect id="사각형_601" data-name="사각형 601" width="152" height="30" transform="translate(0 0.198)" fill="#785ffa" opacity="0"/>
    <path id="패스_553" data-name="패스 553" d="M81.888,3V13.592a5.3,5.3,0,1,1-10.592,0V3H66V13.592A10.592,10.592,0,0,0,76.592,24.184h0A10.592,10.592,0,0,0,87.184,13.592V3Z" transform="translate(33.866 1.475)" fill="#785ffa"/>
    <path id="패스_554" data-name="패스 554" d="M103.427,7.539a2.6,2.6,0,0,0,.757-1.869A2.648,2.648,0,0,0,101.536,3H83V8.3H95.143L83.757,19.644h0A2.6,2.6,0,0,0,83,21.513a2.64,2.64,0,0,0,2.459,2.671h18.725v-5.3h-12.1Z" transform="translate(42.589 1.475)" fill="#785ffa"/>
    <path id="패스_555" data-name="패스 555" d="M67.453,3.635a8.489,8.489,0,0,0-9.079,1.717A8.5,8.5,0,0,0,44,11.511V24.183h5.3V11.511h0a3.215,3.215,0,1,1,6.423,0v7.883h0v4.789h5.3V11.511h0a3.215,3.215,0,1,1,6.423,0v7.883h0v4.789h5.3V11.511a8.5,8.5,0,0,0-5.281-7.869Z" transform="translate(22.577 1.475)" fill="#785ffa"/>
    <g id="E" transform="translate(38.584 4.475)">
      <path id="패스_556" data-name="패스 556" d="M48.2,5.648A2.648,2.648,0,0,0,45.549,3H25.5V8.3H45.549A2.648,2.648,0,0,0,48.2,5.648Z" transform="translate(-25.5 -3)" fill="#785ffa"/>
      <path id="패스_557" data-name="패스 557" d="M45.549,13.5H25.5v5.3H45.549a2.65,2.65,0,1,0,0-5.3Z" transform="translate(-25.5 2.388)" fill="#785ffa"/>
      <path id="패스_558" data-name="패스 558" d="M45.549,8.5H25.5v5.3H45.549a2.65,2.65,0,1,0,0-5.3Z" transform="translate(-25.5 -0.178)" fill="#785ffa"/>
    </g>
    <path id="패스_559" data-name="패스 559" d="M8.3,23.548a8.489,8.489,0,0,0,9.079-1.717,8.5,8.5,0,0,0,14.375-6.158V3h-5.3V15.672h0a3.215,3.215,0,1,1-6.423,0V7.789h0V3h-5.3V15.672h0a3.215,3.215,0,1,1-6.423,0V7.789h0V3H3V15.672a8.5,8.5,0,0,0,5.3,7.877Z" transform="translate(1.539 1.475)" fill="#785ffa"/>
  </g>
</svg>
